<?xml version="1.0" standalone="no"?>
<!DOCTYPE svg PUBLIC "-//W3C//DTD SVG 20010904//EN"
 "http://www.w3.org/TR/2001/REC-SVG-20010904/DTD/svg10.dtd">
<svg version="1.0" xmlns="http://www.w3.org/2000/svg"
 width="1600.000000pt" height="1600.000000pt" viewBox="0 0 1600.000000 1600.000000"
 preserveAspectRatio="xMidYMid meet">
<metadata>
Created by potrace 1.11, written by Peter Selinger 2001-2013
</metadata>
<g transform="translate(0.000000,1600.000000) scale(0.100000,-0.100000)"
fill="#000000" stroke="none">
<path d="M6763 13624 c-864 -104 -1714 -706 -2350 -1664 -473 -710 -831 -1627
-1053 -2689 -356 -1706 -381 -3123 -75 -4213 269 -959 766 -1657 1527 -2144
159 -102 504 -274 678 -339 270 -100 603 -180 859 -205 134 -13 435 -13 559 1
384 41 710 169 945 371 38 32 72 58 78 58 5 0 23 21 39 46 l29 46 19 -31 c10
-17 53 -60 94 -95 232 -198 492 -314 844 -378 115 -20 159 -23 414 -23 304 1
389 9 630 61 261 57 574 167 825 288 1039 503 1704 1406 1969 2674 141 675
165 1372 83 2387 -26 319 -149 1081 -253 1565 -442 2058 -1408 3530 -2683
4087 -336 147 -645 213 -993 213 -373 0 -669 -106 -858 -306 -31 -33 -64 -70
-73 -84 l-17 -25 -28 35 c-157 204 -403 332 -707 369 -119 14 -362 12 -502 -5z
m437 -384 c115 -14 222 -44 294 -83 61 -32 186 -140 175 -151 -3 -3 -66 -10
-140 -15 -74 -6 -168 -15 -209 -21 -276 -39 -699 -179 -784 -258 -38 -36 -56
-81 -56 -142 0 -94 59 -170 148 -189 55 -12 92 -5 177 34 242 110 525 174 809
182 l179 6 -6 -34 c-4 -19 -9 -136 -13 -261 l-7 -227 -46 -6 c-321 -43 -588
-142 -799 -297 l-52 -39 -33 38 c-98 113 -222 209 -357 277 -83 42 -188 82
-195 74 -9 -9 -95 -370 -90 -379 4 -5 13 -9 21 -9 25 0 146 -66 211 -114 77
-58 145 -141 203 -248 68 -125 144 -167 249 -138 33 9 66 32 135 98 141 134
255 209 411 267 72 28 207 60 288 70 l57 7 0 -337 c0 -317 -1 -337 -17 -330
-44 19 -125 45 -203 66 -75 19 -102 21 -230 16 -120 -4 -159 -10 -230 -32
-222 -71 -418 -212 -561 -405 -73 -98 -146 -165 -217 -198 -49 -23 -70 -27
-147 -27 -78 0 -97 4 -147 28 -110 54 -179 170 -163 274 3 25 22 85 41 134 53
138 67 210 67 339 0 132 -16 207 -69 317 -62 131 -197 273 -291 309 -132 51
-267 -38 -268 -176 0 -75 25 -120 99 -178 87 -69 128 -148 134 -257 4 -84 4
-85 -73 -305 -57 -160 -43 -356 36 -507 122 -236 360 -377 634 -376 271 2 489
125 679 386 99 134 249 239 392 273 152 36 330 -7 492 -118 l42 -29 0 -384 0
-384 -47 -8 c-27 -4 -97 -8 -158 -7 -117 1 -185 19 -267 71 -42 26 -112 93
-143 136 l-20 28 -170 -76 c-93 -42 -174 -80 -178 -84 -4 -4 15 -42 42 -84
126 -193 324 -325 561 -373 65 -13 118 -16 237 -12 l153 5 0 -587 0 -587 -82
-18 c-118 -26 -280 -24 -373 5 -97 30 -189 81 -266 144 -61 51 -155 153 -148
160 2 2 40 32 84 67 113 90 281 264 310 323 38 76 29 148 -27 212 -42 48 -83
67 -143 67 -73 0 -116 -25 -196 -114 -181 -201 -416 -353 -601 -390 -88 -17
-243 -13 -330 10 -135 35 -288 117 -390 209 l-38 34 -96 -88 c-53 -49 -119
-109 -147 -134 l-50 -46 63 -57 c168 -152 397 -267 635 -319 35 -7 122 -12
210 -12 122 0 167 5 245 24 52 12 100 23 106 24 6 1 29 -22 51 -51 21 -29 56
-71 77 -93 l37 -41 -51 -59 c-100 -116 -278 -226 -425 -264 -117 -30 -247 -39
-368 -27 -109 12 -279 49 -343 76 l-32 13 -81 -175 c-44 -97 -78 -179 -76
-184 7 -11 176 -65 275 -88 269 -62 582 -51 814 30 159 55 337 165 456 282 74
72 140 147 140 159 0 5 17 0 38 -11 173 -87 438 -123 642 -87 41 8 77 12 80
11 3 -2 7 -213 9 -468 l3 -465 -33 -17 c-98 -51 -284 -95 -401 -95 -154 0
-325 65 -435 165 -40 36 -67 54 -75 49 -7 -4 -79 -55 -160 -112 l-148 -104 20
-28 c58 -82 210 -197 343 -260 140 -67 242 -91 403 -97 158 -6 260 5 392 43
47 14 86 23 87 22 1 -2 6 -178 10 -392 l7 -390 -54 49 c-117 106 -266 182
-416 211 -106 21 -225 12 -349 -28 -135 -42 -247 -48 -337 -18 -165 54 -334
242 -521 575 -84 150 -133 221 -208 301 -173 186 -374 278 -632 291 -170 8
-323 -15 -510 -78 -92 -31 -339 -155 -379 -189 -100 -88 -81 -261 37 -322 74
-38 124 -30 257 40 205 109 366 156 535 156 247 2 403 -108 555 -389 369 -682
781 -916 1310 -745 37 12 93 21 130 22 58 0 76 -5 149 -42 169 -84 317 -290
384 -530 41 -151 42 -167 40 -923 l-2 -728 -36 -67 c-72 -137 -145 -181 -310
-190 -190 -9 -347 65 -548 257 -182 175 -356 411 -470 638 -57 112 -130 161
-224 150 -92 -10 -173 -101 -173 -195 0 -129 321 -613 567 -853 103 -101 241
-212 307 -246 l31 -16 -30 -9 c-16 -5 -122 -11 -235 -13 -294 -5 -526 28 -836
121 l-122 36 -6 37 c-3 20 -21 69 -40 108 -54 112 -106 257 -133 373 -34 147
-42 367 -18 511 41 250 161 506 323 688 l48 55 238 -22 c390 -37 562 -74 673
-147 79 -53 115 -122 133 -262 12 -92 39 -146 92 -180 35 -23 52 -28 107 -28
79 0 128 26 169 89 24 37 27 49 25 126 -5 233 -119 449 -305 580 -174 123
-379 171 -954 224 -310 29 -372 44 -461 110 -114 83 -186 203 -240 396 -26 94
-53 281 -53 366 0 88 -44 156 -122 189 -62 25 -109 19 -190 -25 -40 -22 -122
-65 -183 -94 -325 -160 -617 -177 -881 -50 -149 71 -310 215 -414 371 l-50 75
0 376 c0 208 3 387 6 398 5 21 10 19 71 -27 180 -137 418 -201 634 -170 110
16 215 47 261 77 117 75 104 268 -22 332 -55 28 -98 28 -202 1 -66 -17 -102
-21 -178 -17 -113 6 -176 30 -271 105 -114 89 -251 291 -243 358 63 506 113
821 194 1226 61 302 147 666 165 694 21 33 110 60 200 60 68 0 88 -5 133 -28
68 -36 129 -91 192 -177 52 -70 140 -233 140 -260 0 -8 -13 -48 -30 -88 -36
-88 -60 -210 -60 -305 0 -57 -5 -78 -26 -114 -49 -84 -148 -123 -309 -123
l-102 0 -38 -190 c-21 -105 -35 -194 -31 -198 4 -4 76 -6 160 -6 176 1 275 22
402 84 l76 37 40 -56 c94 -130 206 -212 288 -210 126 2 221 123 190 241 -14
53 -52 104 -96 130 -64 38 -137 191 -154 322 -24 190 49 350 219 480 244 188
527 159 781 -81 l35 -33 145 125 c80 69 146 129 148 134 3 10 -98 102 -185
168 -76 57 -258 147 -353 174 -117 33 -318 38 -434 10 -101 -24 -253 -92 -327
-147 -28 -20 -51 -35 -53 -33 -2 2 -13 22 -24 44 -55 109 -186 266 -281 339
-136 103 -245 145 -403 153 -60 3 -108 9 -108 14 0 33 188 516 284 729 31 68
54 130 51 138 -2 7 -1 10 5 7 5 -3 16 8 25 25 8 16 18 30 21 30 3 0 25 -13 49
-30 125 -86 196 -239 211 -457 4 -57 11 -93 18 -93 6 0 92 -9 190 -20 99 -11
181 -20 183 -20 10 0 1 220 -12 296 -49 282 -179 494 -385 629 l-71 46 19 32
c11 18 36 59 55 92 39 65 39 65 159 235 78 110 198 266 263 340 65 76 285 297
375 378 l95 85 7 -139 c8 -171 24 -231 79 -284 95 -92 250 -66 310 52 22 43
22 55 3 221 -16 144 55 312 195 460 79 83 138 124 230 157 256 94 589 138 821
110z m1921 0 c197 -20 449 -81 564 -136 59 -28 186 -145 244 -225 82 -113 126
-249 119 -372 l-3 -60 180 -67 180 -68 14 42 c8 25 14 91 15 173 0 73 4 133 7
133 12 0 211 -184 319 -296 226 -233 417 -483 608 -796 l41 -66 -71 -47 c-135
-90 -225 -194 -298 -346 -63 -132 -91 -256 -97 -433 l-6 -149 39 6 c21 3 109
13 195 23 l156 17 6 96 c10 164 57 295 141 388 44 49 121 100 129 86 19 -30
150 -326 202 -453 52 -128 175 -461 175 -474 0 -2 -48 -6 -107 -8 -191 -9
-334 -77 -489 -232 -91 -92 -163 -190 -221 -304 -1 -2 -29 15 -64 38 -89 61
-213 117 -315 141 -76 18 -110 20 -224 16 -153 -5 -258 -31 -383 -93 -169 -84
-356 -234 -396 -317 -53 -109 5 -245 117 -277 82 -22 133 -6 219 73 264 242
502 288 741 145 271 -164 355 -435 222 -713 -21 -44 -49 -90 -62 -102 -12 -12
-44 -41 -69 -65 -70 -65 -85 -133 -48 -218 47 -109 168 -148 282 -90 54 28
138 109 186 181 l37 56 50 -29 c73 -42 195 -77 314 -90 99 -10 242 -5 267 10
8 5 1 62 -25 195 l-36 187 -100 0 c-157 0 -244 31 -302 107 -25 33 -29 48 -35
142 -8 121 -28 213 -64 302 -14 35 -25 69 -25 76 0 24 56 139 109 220 60 95
157 190 226 224 71 34 185 34 270 -1 l60 -25 32 -125 c134 -517 313 -1522 317
-1785 1 -78 0 -82 -44 -155 -53 -88 -172 -216 -241 -261 -109 -70 -254 -87
-404 -49 -96 25 -138 25 -190 1 -83 -38 -129 -133 -106 -220 25 -93 76 -132
226 -172 64 -18 109 -22 225 -22 129 0 155 2 233 26 110 34 192 75 283 143
l72 53 5 -42 c3 -23 4 -204 4 -403 l-2 -361 -37 -56 c-60 -90 -163 -201 -250
-271 -245 -196 -542 -245 -863 -141 -78 26 -256 109 -383 180 -100 55 -189 42
-259 -38 -36 -41 -38 -49 -53 -227 -12 -141 -15 -159 -36 -245 -65 -261 -196
-429 -379 -488 -29 -10 -185 -29 -367 -47 -333 -31 -450 -47 -585 -80 -362
-87 -572 -295 -629 -621 -21 -121 -15 -178 22 -232 75 -108 223 -114 311 -13
35 39 37 45 53 156 37 263 183 334 807 392 201 19 234 20 248 8 10 -8 44 -49
77 -92 213 -280 309 -571 295 -892 -9 -206 -50 -370 -149 -592 -27 -61 -51
-127 -55 -147 l-5 -35 -122 -36 c-293 -88 -503 -120 -786 -120 -113 -1 -231 3
-264 7 l-59 9 44 26 c277 163 589 523 808 933 64 119 72 166 40 238 -40 93
-135 139 -233 111 -64 -18 -88 -44 -162 -176 -129 -231 -240 -385 -391 -545
-159 -166 -333 -281 -471 -310 -81 -16 -214 -7 -287 21 -67 26 -102 59 -155
146 l-35 58 -6 161 c-11 252 -10 1210 1 1319 13 129 42 240 95 352 53 113 99
183 173 258 146 149 273 187 446 132 125 -40 185 -50 301 -49 381 1 672 231
976 768 113 200 172 273 275 341 89 57 164 78 289 78 179 0 335 -44 545 -157
98 -52 122 -61 165 -60 144 1 236 148 176 280 -23 50 -69 85 -199 151 -351
180 -711 229 -991 135 -67 -22 -196 -88 -250 -127 -62 -46 -173 -160 -221
-227 -21 -30 -75 -119 -120 -199 -118 -208 -192 -312 -295 -416 -119 -120
-205 -166 -329 -172 -73 -4 -98 0 -217 34 -116 33 -148 38 -239 38 -199 0
-386 -76 -544 -223 l-48 -46 3 387 c2 212 6 388 9 391 3 2 57 -9 120 -25 158
-41 378 -50 520 -20 221 46 436 166 564 316 63 74 76 102 76 164 0 67 -18 109
-63 149 -93 81 -208 65 -301 -42 -126 -146 -326 -225 -536 -212 -100 7 -195
29 -311 74 l-69 27 0 468 c0 257 3 469 8 471 4 3 43 -2 87 -10 56 -10 121 -13
215 -9 150 5 256 27 376 77 l75 31 36 -43 c118 -143 315 -293 475 -362 309
-132 681 -142 1052 -26 146 45 199 77 230 139 57 112 -10 253 -134 280 -50 11
-61 10 -115 -10 -117 -43 -265 -78 -376 -90 -324 -34 -618 75 -808 300 l-43
50 53 58 c28 31 63 74 77 94 25 39 44 42 93 17 8 -4 67 -15 130 -25 263 -39
520 14 771 158 140 80 295 207 326 268 66 131 -25 281 -171 281 -67 0 -104
-17 -177 -84 -269 -247 -618 -306 -926 -157 -118 57 -232 145 -375 290 -115
117 -130 129 -175 138 -97 21 -178 -17 -220 -104 -33 -67 -29 -130 12 -195 35
-56 243 -262 321 -318 l62 -45 -19 -26 c-55 -78 -189 -189 -287 -238 -125 -64
-319 -83 -480 -47 l-83 18 0 586 0 586 188 0 c149 1 200 4 252 19 155 43 274
110 389 220 76 73 178 214 164 227 -4 4 -86 42 -182 84 -137 61 -175 74 -182
64 -5 -8 -9 -17 -9 -20 0 -4 -25 -33 -56 -64 -63 -64 -165 -118 -253 -135 -69
-13 -180 -11 -251 3 l-55 12 3 380 3 380 29 25 c35 31 140 84 218 111 236 82
501 -22 681 -266 204 -276 482 -413 762 -375 346 47 597 304 616 630 6 114 -9
194 -62 330 -76 193 -61 328 47 446 22 24 38 47 36 52 -16 41 -185 322 -193
322 -23 0 -146 -112 -189 -174 -167 -234 -188 -484 -66 -796 68 -176 25 -309
-127 -386 -51 -26 -68 -29 -148 -29 -77 0 -98 4 -147 27 -83 39 -131 81 -208
183 -143 192 -336 340 -530 407 -203 70 -453 64 -661 -17 l-59 -24 0 335 c0
388 -19 346 141 314 244 -50 439 -153 624 -330 88 -85 131 -105 202 -97 74 8
120 49 178 155 59 110 116 178 199 240 50 36 183 109 227 124 9 3 -74 365 -86
376 -7 8 -111 -31 -190 -71 -136 -67 -287 -184 -368 -285 l-26 -32 -65 46
c-135 94 -318 181 -477 227 -73 21 -189 44 -325 63 l-31 4 -7 228 c-4 125 -10
242 -13 260 l-5 32 125 0 c280 0 619 -74 872 -191 85 -39 150 -42 213 -10 112
57 136 226 43 315 -58 56 -363 169 -593 220 -130 29 -298 52 -447 62 l-103 6
56 57 c150 152 410 214 747 181z m-5509 -7554 c130 -90 300 -159 473 -191 71
-14 126 -16 260 -12 193 6 295 27 487 99 60 22 110 39 112 37 1 -2 15 -54 29
-116 75 -307 218 -531 432 -673 28 -18 51 -34 53 -36 2 -1 -22 -39 -53 -85
-31 -45 -83 -135 -115 -198 -200 -399 -237 -810 -115 -1267 14 -53 25 -97 25
-99 0 -7 -153 85 -250 151 -348 234 -650 547 -872 904 -82 133 -151 260 -141
260 4 0 35 -10 68 -21 125 -42 252 -60 407 -60 205 1 347 26 517 91 133 52
184 110 184 210 0 60 -11 90 -52 133 -64 70 -144 79 -262 30 -129 -53 -215
-68 -384 -68 -123 0 -165 5 -235 23 -152 40 -306 124 -436 238 l-61 53 -32
118 c-17 65 -47 195 -65 288 -43 214 -46 235 -41 235 2 0 32 -20 67 -44z
m8842 27 c-2 -10 -13 -70 -24 -133 -11 -63 -42 -200 -67 -304 l-47 -189 -71
-59 c-292 -248 -656 -321 -1000 -203 -42 15 -78 25 -79 23 -1 -1 -13 -25 -28
-53 -14 -27 -54 -103 -88 -168 -34 -65 -61 -120 -59 -121 32 -28 235 -92 354
-111 205 -33 478 -14 650 45 32 11 62 20 66 20 8 0 -64 -136 -122 -230 -217
-355 -492 -650 -834 -896 -93 -67 -294 -189 -300 -182 -3 3 7 52 23 109 49
174 65 321 59 537 -6 198 -24 305 -83 487 -36 112 -130 302 -203 414 -34 51
-61 94 -59 95 69 46 149 108 186 145 143 143 247 343 302 584 12 53 26 97 30
97 3 0 35 -12 71 -26 90 -37 248 -82 354 -100 138 -24 389 -15 517 19 129 34
265 95 363 162 44 29 83 54 87 54 3 1 4 -7 2 -16z"/>
</g>
</svg>
